# Blender v2.78 (sub 0) OBJ File: 'frame.blend'
# www.blender.org
mtllib frame.mtl
o Plane
v -2.093340 0.136759 -2.183403
v -2.109881 0.140358 -2.199945
v -2.303288 0.295113 -2.393352
v -2.321102 0.295113 -2.411166
v -2.336371 0.313107 -2.426435
v -2.336371 -0.000000 -2.426435
v 2.070436 0.000000 -2.160500
v 2.070436 0.115166 -2.160500
v 2.093340 0.136759 -2.183403
v 2.109881 0.140358 -2.199945
v 2.303288 0.295113 -2.393352
v 2.321103 0.295113 -2.411166
v 2.336371 0.313107 -2.426435
v 2.336371 -0.000000 -2.426435
v 2.093340 0.136759 2.183403
v 2.303288 0.295113 2.393352
v 2.336371 0.313107 2.426435
v 2.336371 -0.000000 2.426435
v 2.070436 0.000000 2.160500
v 2.070436 0.115166 2.160500
v 2.109881 0.140358 2.199945
v 2.321102 0.295113 2.411166
v -2.070436 0.000000 2.160500
v -2.070436 0.115166 2.160500
v -2.093340 0.136759 2.183403
v -2.109881 0.140358 2.199945
v -2.303288 0.295113 2.393352
v -2.321103 0.295113 2.411166
v -2.336371 0.313107 2.426435
v -2.336371 -0.000000 2.426435
v -2.070436 0.000000 -2.160500
v -2.070436 0.115166 -2.160500
vt 0.9678 0.9640
vt 0.9651 0.0187
vt 0.9688 0.0154
vt 0.9747 0.9699
vt 0.9441 0.9432
vt 0.9424 0.0375
vt 0.9601 0.0216
vt 0.9628 0.9589
vt 0.9396 0.9409
vt 0.9327 0.0422
vt 0.9403 0.0393
vt 0.9393 0.9392
vt 0.9758 0.0091
vt 0.9787 0.9748
vt 0.9409 0.9374
vt 0.9314 0.0418
vt 0.0295 0.0151
vt 0.0227 0.0073
vt 0.0538 0.0360
vt 0.0326 0.0169
vt 0.0613 0.0425
vt 0.0595 0.0405
vt 0.0206 0.0056
vt 0.0619 0.0409
vt 0.0322 0.9606
vt 0.0248 0.9670
vt 0.0538 0.9415
vt 0.0391 0.9561
vt 0.0624 0.9362
vt 0.0606 0.9373
vt 0.0198 0.9715
vt 0.0600 0.9349
vt 0.0012 -0.0008
vt 0.9957 -0.0008
vt 0.9926 0.9971
vt 0.0105 0.9995
vn 0.0000 0.6470 0.7625
vn 0.0000 0.7808 0.6248
vn 0.0000 0.7276 0.6860
vn 0.0000 0.0000 -1.0000
vn 0.0000 1.0000 0.0000
vn 0.0000 0.9771 0.2126
vn 0.0000 0.0000 1.0000
vn -0.7625 0.6470 -0.0000
vn -0.6248 0.7808 0.0000
vn -0.6860 0.7276 0.0000
vn 1.0000 0.0000 0.0000
vn -0.2126 0.9771 0.0000
vn -1.0000 0.0000 0.0000
vn 0.0000 0.6470 -0.7625
vn 0.0000 0.7808 -0.6248
vn 0.0000 0.7276 -0.6860
vn 0.0000 0.9771 -0.2126
vn 0.7625 0.6470 0.0000
vn 0.6248 0.7808 0.0000
vn 0.6860 0.7276 0.0000
vn 0.2126 0.9771 0.0000
usemtl frame
s off
f 4/1/1 12/2/1 13/3/1 5/4/1
f 2/5/2 10/6/2 11/7/2 3/8/2
f 32/9/3 8/10/3 9/11/3 1/12/3
f 5/4/4 13/3/4 14/13/4 6/14/4
f 3/8/5 11/7/5 12/2/5 4/1/5
f 1/12/6 9/11/6 10/6/6 2/5/6
f 31/15/7 7/16/7 8/10/7 32/9/7
f 12/2/8 22/17/8 17/18/8 13/3/8
f 10/6/9 21/19/9 16/20/9 11/7/9
f 8/10/10 20/21/10 15/22/10 9/11/10
f 13/3/11 17/18/11 18/23/11 14/13/11
f 11/7/5 16/20/5 22/17/5 12/2/5
f 9/11/12 15/22/12 21/19/12 10/6/12
f 7/16/13 19/24/13 20/21/13 8/10/13
f 22/17/14 28/25/14 29/26/14 17/18/14
f 21/19/15 26/27/15 27/28/15 16/20/15
f 20/21/16 24/29/16 25/30/16 15/22/16
f 17/18/7 29/26/7 30/31/7 18/23/7
f 16/20/5 27/28/5 28/25/5 22/17/5
f 15/22/17 25/30/17 26/27/17 21/19/17
f 19/24/4 23/32/4 24/29/4 20/21/4
f 28/25/18 4/1/18 5/4/18 29/26/18
f 26/27/19 2/5/19 3/8/19 27/28/19
f 24/29/20 32/9/20 1/12/20 25/30/20
f 29/26/13 5/4/13 6/14/13 30/31/13
f 27/28/5 3/8/5 4/1/5 28/25/5
f 25/30/21 1/12/21 2/5/21 26/27/21
f 23/32/11 31/15/11 32/9/11 24/29/11
usemtl picture
f 23/33/5 19/34/5 7/35/5 31/36/5
