# Blender v2.78 (sub 0) OBJ File: 'frame.blend'
# www.blender.org
mtllib frame.mtl
o Plane
v -0.711666 0.000000 -0.406755
v -0.781043 0.114978 -0.476133
v -0.791883 0.101180 -0.486973
v 0.729010 0.114978 -0.424100
v 0.711666 0.098114 -0.406755
v 0.711666 0.000000 -0.406755
v 0.781043 0.114978 -0.476133
v 0.791883 0.101180 -0.486973
v 0.801639 0.001533 -0.496729
v 0.711666 0.000000 0.575137
v 0.781043 0.114978 0.644515
v 0.791883 0.101180 0.655355
v 0.801639 0.001533 0.665111
v 0.729010 0.114978 0.592482
v 0.711666 0.098114 0.575137
v -0.729010 0.114978 0.592482
v -0.711666 0.098114 0.575137
v -0.711666 0.000000 0.575137
v -0.781043 0.114978 0.644515
v -0.791883 0.101180 0.655355
v -0.801639 0.001533 0.665111
v -0.729010 0.114978 -0.424100
v -0.711666 0.098114 -0.406755
v -0.801639 0.001533 -0.496729
vt 0.0220 0.9634
vt 0.9822 0.9849
vt 0.9843 0.9760
vt 0.0139 0.9752
vt 0.0490 0.9357
vt 0.9606 0.9383
vt 0.9607 0.9430
vt 0.0453 0.9393
vt 0.0448 0.9410
vt 0.9612 0.9404
vt 0.9897 0.9859
vt 0.0064 0.9866
vt 0.9674 0.0542
vt 0.9832 0.0156
vt 0.9889 0.0056
vt 0.9940 0.0037
vt 0.9630 0.0535
vt 0.9574 0.0571
vt 0.0198 0.0220
vt 0.0120 0.0113
vt 0.0483 0.0554
vt 0.0424 0.0531
vt 0.0438 0.0532
vt 0.0026 0.0015
vt 0.9973 0.9930
vt 0.0019 0.9982
vt 0.0001 0.0001
vt 0.9999 0.0001
vn 0.0000 0.6178 -0.7863
vn 0.0000 0.0000 1.0000
vn 0.0000 1.0000 0.0000
vn 0.0000 0.0974 -0.9952
vn 0.0000 0.7170 0.6971
vn 0.9952 0.0974 0.0000
vn -0.6971 0.7170 -0.0000
vn 0.7863 0.6178 0.0000
vn -1.0000 0.0000 0.0000
vn -0.0000 0.6178 0.7863
vn 0.0000 0.0000 -1.0000
vn 0.0000 0.0974 0.9952
vn 0.0000 0.7170 -0.6971
vn -0.9952 0.0974 0.0000
vn 0.6971 0.7170 0.0000
vn -0.7863 0.6178 0.0000
vn 1.0000 0.0000 0.0000
usemtl frame
s off
f 2/1/1 7/2/1 8/3/1 3/4/1
f 1/5/2 6/6/2 5/7/2 23/8/2
f 22/9/3 4/10/3 7/2/3 2/1/3
f 3/4/4 8/3/4 9/11/4 24/12/4
f 23/8/5 5/7/5 4/10/5 22/9/5
f 4/10/3 14/13/3 11/14/3 7/2/3
f 8/3/6 12/15/6 13/16/6 9/11/6
f 5/7/7 15/17/7 14/13/7 4/10/7
f 7/2/8 11/14/8 12/15/8 8/3/8
f 6/6/9 10/18/9 15/17/9 5/7/9
f 11/14/10 19/19/10 20/20/10 12/15/10
f 10/18/11 18/21/11 17/22/11 15/17/11
f 14/13/3 16/23/3 19/19/3 11/14/3
f 12/15/12 20/20/12 21/24/12 13/16/12
f 15/17/13 17/22/13 16/23/13 14/13/13
f 16/23/3 22/9/3 2/1/3 19/19/3
f 20/20/14 3/4/14 24/12/14 21/24/14
f 17/22/15 23/8/15 22/9/15 16/23/15
f 19/19/16 2/1/16 3/4/16 20/20/16
f 18/21/17 1/5/17 23/8/17 17/22/17
usemtl picture
f 6/25/3 1/26/3 18/27/3 10/28/3
