# Blender v2.78 (sub 0) OBJ File: 'frame.blend'
# www.blender.org
mtllib frame.mtl
o Plane
v -4.142590 0.187892 -7.900809
v -4.142590 0.146610 -7.900809
v -4.109750 0.146610 -7.867970
v -4.109750 0.100167 -7.867970
v 5.153929 0.492351 -8.761948
v 5.077303 0.492351 -8.685322
v 4.705115 0.270457 -8.313134
v 4.639436 0.187892 -8.247455
v 4.639436 0.249816 -8.247455
v 4.581054 0.249816 -8.189072
v 4.581054 0.187892 -8.189072
v 4.292791 0.187892 -7.900809
v 4.292791 0.146610 -7.900809
v 4.259951 0.146610 -7.867969
v 4.259951 0.100167 -7.867969
v 5.153929 0.084686 -8.761948
v 4.292792 0.187892 8.060158
v 4.292792 0.146610 8.060158
v 4.259952 0.146610 8.027318
v 4.259952 0.100167 8.027318
v 5.153931 0.492351 8.921296
v 5.077304 0.492351 8.844670
v 4.705117 0.270457 8.472483
v 4.639437 0.187892 8.406802
v 4.639437 0.249816 8.406802
v 4.581055 0.249816 8.348421
v 4.581055 0.187892 8.348421
v 5.153931 0.084686 8.921296
v -5.003727 0.492351 8.921295
v -4.927101 0.492351 8.844669
v -4.554914 0.270457 8.472482
v -4.489234 0.187892 8.406802
v -4.489234 0.249816 8.406802
v -4.430852 0.249816 8.348419
v -4.430852 0.187892 8.348419
v -4.142589 0.187892 8.060157
v -4.142589 0.146610 8.060157
v -4.109749 0.146610 8.027316
v -4.109749 0.100167 8.027316
v -5.003727 0.084686 8.921295
v -5.003729 0.492351 -8.761948
v -4.927103 0.492351 -8.685322
v -4.554915 0.270457 -8.313134
v -4.489236 0.187892 -8.247455
v -4.489236 0.249816 -8.247455
v -4.430853 0.249816 -8.189073
v -4.430853 0.187892 -8.189073
v -5.003729 0.084686 -8.761948
vt 0.0830 0.9439
vt 0.1050 0.9302
vt 0.8341 0.9448
vt 0.8579 0.9603
vt 0.0773 0.9459
vt 0.0795 0.9465
vt 0.8591 0.9621
vt 0.8600 0.9637
vt 0.9068 0.7042
vt 0.8876 0.7051
vt 0.9085 0.0884
vt 0.9319 0.0769
vt 0.0335 0.9723
vt 0.0416 0.9666
vt 0.8968 0.9864
vt 0.9022 0.9904
vt 0.1042 0.9301
vt 0.8343 0.9448
vt 0.0818 0.9435
vt 0.8595 0.9617
vt 0.0691 0.9513
vt 0.8667 0.9668
vt 0.1118 0.9267
vt 0.8297 0.9422
vt 0.1116 0.9264
vt 0.8300 0.9420
vt 0.8964 0.0777
vt 0.8963 0.0781
vt 0.8992 0.0762
vt 0.9084 0.0708
vt 0.8672 0.0953
vt 0.8665 0.0959
vt 0.8719 0.0918
vt 0.8986 0.0767
vt 0.4832 0.0534
vt 0.5006 0.0620
vt 0.1219 0.0538
vt 0.1175 0.0462
vt 0.9351 0.0542
vt 0.9443 0.0492
vt 0.8718 0.0923
vt 0.1457 0.0815
vt 0.1261 0.0670
vt 0.1199 0.0647
vt 0.1193 0.0642
vt 0.0881 0.1369
vt 0.1070 0.1372
vt 0.0964 0.4358
vt 0.0775 0.4355
vt 0.0873 0.0405
vt 0.0812 0.0365
vt 0.1454 0.0818
vt 0.1247 0.0666
vt 0.1109 0.0595
vt 0.1491 0.0853
vt 0.1496 0.0853
vt 0.8940 0.9254
vt 0.8752 0.9254
vt 0.9031 0.2858
vt 0.9206 0.2946
vn 0.0000 1.0000 0.0000
vn 0.0000 0.0000 -1.0000
vn 0.0000 0.0000 1.0000
vn 0.0000 0.8589 0.5121
vn 0.0000 0.6225 0.7826
vn -1.0000 0.0000 0.0000
vn -0.7826 0.6225 0.0000
vn 1.0000 0.0000 -0.0000
vn -0.5121 0.8589 0.0000
vn 0.0000 0.8589 -0.5121
vn 0.0000 0.6225 -0.7826
vn 0.7826 0.6225 -0.0000
vn 0.5121 0.8589 -0.0000
usemtl picture
s off
f 47/1/1 1/2/1 12/3/1 11/4/1
f 44/5/2 45/6/2 9/7/2 8/8/2
f 48/9/2 41/10/2 5/11/2 16/12/2
f 41/13/1 42/14/1 6/15/1 5/16/1
f 1/2/3 2/17/3 13/18/3 12/3/3
f 45/6/1 46/19/1 10/20/1 9/7/1
f 42/14/4 43/21/4 7/22/4 6/15/4
f 2/17/1 3/23/1 14/24/1 13/18/1
f 46/19/3 47/1/3 11/4/3 10/20/3
f 43/21/5 44/5/5 8/8/5 7/22/5
f 3/23/3 4/25/3 15/26/3 14/24/3
f 10/20/6 11/4/6 27/27/6 26/28/6
f 7/22/7 8/8/7 24/29/7 23/30/7
f 14/24/6 15/26/6 20/31/6 19/32/6
f 11/4/1 12/3/1 17/33/1 27/27/1
f 8/8/8 9/7/8 25/34/8 24/29/8
f 16/35/8 5/36/8 21/37/8 28/38/8
f 5/16/1 6/15/1 22/39/1 21/40/1
f 12/3/6 13/18/6 18/41/6 17/33/6
f 9/7/1 10/20/1 26/28/1 25/34/1
f 6/15/9 7/22/9 23/30/9 22/39/9
f 13/18/1 14/24/1 19/32/1 18/41/1
f 27/27/1 17/33/1 36/42/1 35/43/1
f 24/29/3 25/34/3 33/44/3 32/45/3
f 28/46/3 21/47/3 29/48/3 40/49/3
f 21/40/1 22/39/1 30/50/1 29/51/1
f 17/33/2 18/41/2 37/52/2 36/42/2
f 25/34/1 26/28/1 34/53/1 33/44/1
f 22/39/10 23/30/10 31/54/10 30/50/10
f 18/41/1 19/32/1 38/55/1 37/52/1
f 26/28/2 27/27/2 35/43/2 34/53/2
f 23/30/11 24/29/11 32/45/11 31/54/11
f 19/32/2 20/31/2 39/56/2 38/55/2
f 34/53/8 35/43/8 47/1/8 46/19/8
f 31/54/12 32/45/12 44/5/12 43/21/12
f 38/55/8 39/56/8 4/25/8 3/23/8
f 35/43/1 36/42/1 1/2/1 47/1/1
f 32/45/6 33/44/6 45/6/6 44/5/6
f 40/57/6 29/58/6 41/59/6 48/60/6
f 29/51/1 30/50/1 42/14/1 41/13/1
f 36/42/8 37/52/8 2/17/8 1/2/8
f 33/44/1 34/53/1 46/19/1 45/6/1
f 30/50/13 31/54/13 43/21/13 42/14/13
f 37/52/1 38/55/1 3/23/1 2/17/1
f 4/25/1 39/56/1 20/31/1 15/26/1
