<?xml version="1.0" standalone="no"?>
<!DOCTYPE svg PUBLIC "-//W3C//DTD SVG 20010904//EN"
 "http://www.w3.org/TR/2001/REC-SVG-20010904/DTD/svg10.dtd">
<svg version="1.0" xmlns="http://www.w3.org/2000/svg"
 width="1200.000000pt" height="1200.000000pt" viewBox="0 0 1200.000000 1200.000000"
 preserveAspectRatio="xMidYMid meet">
<metadata>
Created by potrace 1.13, written by Peter Selinger 2001-2015
</metadata>
<g transform="translate(0.000000,1200.000000) scale(0.100000,-0.100000)"
fill="#000000" stroke="none">
<path d="M6160 11914 c-80 -27 -113 -34 -233 -44 -65 -6 -129 -15 -142 -20
-57 -22 -248 -227 -367 -395 -31 -44 -87 -111 -123 -150 -114 -121 -178 -264
-141 -316 24 -35 20 -74 -11 -109 -26 -29 -34 -32 -133 -41 -433 -39 -1363
-273 -1875 -471 -432 -168 -653 -262 -1185 -503 -330 -149 -788 -272 -1145
-305 -69 -7 -130 -18 -142 -26 -40 -26 -56 -71 -49 -138 19 -176 47 -526 56
-683 9 -166 7 -248 -15 -878 -18 -499 -39 -939 -66 -1385 -6 -96 -12 -204 -12
-240 -3 -107 25 -655 43 -855 6 -60 12 -139 15 -175 10 -140 57 -511 91 -722
14 -87 27 -168 28 -180 2 -13 6 -30 9 -38 3 -8 10 -42 15 -75 6 -33 17 -87 27
-120 9 -33 27 -100 40 -150 40 -151 85 -298 106 -343 20 -44 19 -63 -7 -137
-68 -196 -90 -761 -69 -1725 7 -281 9 -318 26 -346 42 -69 418 -388 527 -447
210 -112 282 -145 432 -193 193 -63 337 -93 570 -119 96 -11 530 -8 640 5 52
5 144 15 203 20 148 14 336 46 587 100 130 28 606 143 620 150 18 8 251 64
330 79 30 5 89 17 130 26 134 28 542 104 675 125 71 12 161 27 200 35 38 8 88
16 110 19 22 3 101 14 175 25 178 26 593 67 905 87 515 35 1340 18 1835 -36
301 -34 635 -82 696 -101 31 -10 58 -37 230 -235 217 -250 279 -326 279 -340
0 -16 -46 -85 -213 -320 -85 -120 -103 -150 -97 -171 4 -19 10 -23 23 -18 65
28 121 40 312 65 118 15 305 38 415 50 312 33 371 44 426 81 55 39 104 108
118 169 45 192 64 864 42 1465 -7 171 -14 414 -18 540 -3 127 -9 240 -14 252
-4 12 -52 51 -106 87 -161 107 -216 146 -229 163 -9 14 -8 26 8 62 75 173 186
488 254 720 176 599 280 1179 335 1856 18 227 16 916 -5 1255 -9 157 -25 429
-36 605 -11 176 -22 394 -25 485 -3 91 -10 246 -16 345 -12 206 5 547 42 896
31 281 31 336 -1 381 -13 20 -37 44 -52 53 -16 9 -138 38 -272 65 -266 54
-559 132 -733 196 l-42 15 14 46 c11 36 12 57 3 93 -14 62 -5 92 42 144 22 24
40 51 40 60 0 26 -27 85 -55 118 -32 38 -32 75 0 138 14 27 25 55 25 62 0 7
-19 33 -41 57 -68 74 -82 111 -74 197 6 63 5 74 -8 74 -9 0 -28 15 -44 34
l-28 35 -135 -11 c-75 -6 -152 -8 -172 -4 -45 8 -42 1 -84 258 -32 199 -34
177 37 343 22 50 39 100 39 112 0 33 -53 87 -112 114 -48 22 -67 24 -188 23
-156 0 -191 -10 -311 -86 -89 -57 -181 -99 -264 -122 -79 -22 -178 -61 -240
-94 -93 -50 -98 -108 -16 -167 46 -33 49 -38 45 -73 -20 -165 -25 -584 -8
-694 4 -29 2 -39 -9 -44 -9 -3 -73 13 -144 35 -402 128 -913 251 -1213 291
-46 6 -88 14 -92 16 -9 6 -2 102 19 249 23 165 21 229 -9 301 -74 178 -282
402 -438 471 -133 60 -232 86 -350 94 -63 3 -131 9 -150 13 -20 3 -54 -1 -80
-10z"/>
</g>
</svg>
