# Blender v2.78 (sub 0) OBJ File: 'frame.blend'
# www.blender.org
mtllib frame.mtl
o Plane
v -1.250523 0.006977 -0.880835
v -1.222937 0.000000 -0.853249
v -1.371592 0.075001 -1.001904
v -1.381554 0.073838 -1.011866
v -1.298031 0.033721 -0.928343
v -1.381554 -0.038954 -1.011866
v 1.289602 0.034884 -0.919914
v 1.250523 0.006977 -0.880835
v 1.222937 -0.038954 -0.853249
v 1.222937 0.000000 -0.853249
v 1.298031 0.033721 -0.928343
v 1.371592 0.075001 -1.001904
v 1.381554 0.073838 -1.011866
v 1.381554 -0.038954 -1.011866
v 1.222937 -0.038954 0.853249
v 1.371592 0.075001 1.001904
v 1.381554 0.073838 1.011866
v 1.381554 -0.038954 1.011866
v 1.222937 0.000000 0.853249
v 1.298031 0.033721 0.928343
v 1.289602 0.034884 0.919914
v 1.250523 0.006977 0.880835
v -1.289602 0.034884 0.919914
v -1.250523 0.006977 0.880835
v -1.222937 -0.038954 0.853249
v -1.222937 0.000000 0.853249
v -1.298031 0.033721 0.928343
v -1.371592 0.075001 1.001904
v -1.381554 0.073838 1.011866
v -1.381554 -0.038954 1.011866
v -1.289602 0.034884 -0.919914
v -1.222937 -0.038954 -0.853249
vt 0.0669 0.9141
vt 0.9294 0.9141
vt 0.9462 0.9356
vt 0.0498 0.9356
vt 0.0139 0.9808
vt 0.9815 0.9808
vt 0.9858 0.9863
vt 0.0095 0.9863
vt 0.9498 0.9403
vt 0.0461 0.9403
vt 0.0790 0.8989
vt 0.9175 0.8989
vt 0.1698 0.9329
vt 0.8609 0.9329
vt 0.8609 0.9219
vt 0.1698 0.9219
vt 0.0790 0.8989
vt 0.9175 0.8989
vt 0.9815 0.0193
vt 0.9858 0.0137
vt 0.9462 0.0647
vt 0.9498 0.0600
vt 0.9175 0.1017
vt 0.9294 0.0864
vt 0.7079 0.9318
vt 0.2233 0.9318
vt 0.2233 0.9222
vt 0.7079 0.9222
vt 0.9175 0.1017
vt 0.0669 0.0864
vt 0.0498 0.0647
vt 0.0139 0.0193
vt 0.0095 0.0137
vt 0.0461 0.0600
vt 0.0790 0.1017
vt 0.7964 0.9318
vt 0.1347 0.9318
vt 0.1347 0.9222
vt 0.7964 0.9222
vt 0.0790 0.1017
vt 0.2623 0.9329
vt 0.7684 0.9329
vt 0.7684 0.9219
vt 0.2623 0.9219
vn 0.0000 0.8138 0.5811
vn 0.0000 0.9933 -0.1159
vn 0.0000 0.9906 -0.1367
vn 0.0000 0.9695 0.2452
vn 0.0000 0.0000 -1.0000
vn 0.0000 0.8721 0.4894
vn 0.1159 0.9933 0.0000
vn 0.1367 0.9906 0.0000
vn -0.2452 0.9695 0.0000
vn 1.0000 0.0000 0.0000
vn -0.4894 0.8721 0.0000
vn -0.5811 0.8138 0.0000
vn 0.0000 0.8138 -0.5811
vn 0.0000 0.9933 0.1159
vn 0.0000 0.9906 0.1367
vn 0.0000 0.9695 -0.2452
vn 0.0000 0.0000 1.0000
vn 0.0000 0.8721 -0.4894
vn -0.1159 0.9933 0.0000
vn -0.1367 0.9906 0.0000
vn 0.2452 0.9695 0.0000
vn -1.0000 0.0000 0.0000
vn 0.4894 0.8721 -0.0000
vn 0.5811 0.8138 0.0000
vn 0.0000 1.0000 0.0000
usemtl frame
s off
f 1/1/1 8/2/1 7/3/1 31/4/1
f 3/5/2 12/6/2 13/7/2 4/8/2
f 31/4/3 7/3/3 11/9/3 5/10/3
f 2/11/4 10/12/4 8/2/4 1/1/4
f 4/13/5 13/14/5 14/15/5 6/16/5
f 5/10/6 11/9/6 12/6/6 3/5/6
f 32/17/5 2/11/5 10/12/5 9/18/5
f 12/6/7 16/19/7 17/20/7 13/7/7
f 7/3/8 21/21/8 20/22/8 11/9/8
f 10/12/9 19/23/9 22/24/9 8/2/9
f 13/25/10 17/26/10 18/27/10 14/28/10
f 11/9/11 20/22/11 16/19/11 12/6/11
f 9/18/10 10/12/10 19/23/10 15/29/10
f 8/2/12 22/24/12 21/21/12 7/3/12
f 22/24/13 24/30/13 23/31/13 21/21/13
f 16/19/14 28/32/14 29/33/14 17/20/14
f 21/21/15 23/31/15 27/34/15 20/22/15
f 19/23/16 26/35/16 24/30/16 22/24/16
f 17/36/17 29/37/17 30/38/17 18/39/17
f 20/22/18 27/34/18 28/32/18 16/19/18
f 15/29/17 19/23/17 26/35/17 25/40/17
f 28/32/19 3/5/19 4/8/19 29/33/19
f 23/31/20 31/4/20 5/10/20 27/34/20
f 26/35/21 2/11/21 1/1/21 24/30/21
f 29/41/22 4/42/22 6/43/22 30/44/22
f 27/34/23 5/10/23 3/5/23 28/32/23
f 25/40/22 26/35/22 2/11/22 32/17/22
f 24/30/24 1/1/24 31/4/24 23/31/24
usemtl picture
f 19/23/25 10/12/25 2/11/25 26/35/25
