# Blender v2.78 (sub 0) OBJ File: 'frame.blend'
# www.blender.org
mtllib frame.mtl
o Plane.001
v -4.699764 0.054745 -2.344011
v -4.587343 0.024721 -2.231590
v -4.524158 0.002780 -2.168406
v -4.540849 0.006520 -2.185096
v -4.734337 0.067775 -2.378584
v -4.855651 0.109791 -2.499898
v -4.920754 0.000000 -2.565001
v -4.524158 0.001325 -2.168406
v -4.540849 0.002780 -2.185096
v -4.552472 0.021519 -2.196720
v -4.564096 0.027333 -2.208343
v -4.575719 0.027681 -2.219967
v -4.546660 0.015642 -2.190908
v -4.707844 0.067621 -2.352091
v -4.716192 0.073150 -2.360439
v -4.725131 0.072145 -2.369378
v -4.615448 0.044065 -2.259696
v -4.643553 0.056990 -2.287801
v -4.671659 0.060482 -2.315906
v -4.764665 0.089129 -2.408912
v -4.794994 0.102175 -2.439241
v -4.825322 0.108022 -2.469570
v -4.877352 0.127603 -2.521599
v -4.899776 0.127603 -2.544023
v -4.905364 0.125568 -2.549612
v -4.911120 0.111698 -2.555367
v -4.917348 0.069410 -2.561596
v -4.919437 0.046360 -2.563684
v -4.920351 0.023256 -2.564598
v -4.914657 0.090628 -2.558904
v -4.529722 0.004687 -2.173969
v -4.535285 0.004687 -2.179533
v 4.699764 0.054745 -2.344011
v 4.587343 0.024721 -2.231590
v 4.524158 0.002780 -2.168406
v 4.540849 0.006520 -2.185096
v 4.734337 0.067775 -2.378584
v 4.855651 0.109791 -2.499898
v 4.920753 0.000000 -2.565001
v 4.524158 0.001325 -2.168406
v 4.540849 0.002780 -2.185096
v 4.552472 0.021519 -2.196720
v 4.564095 0.027333 -2.208343
v 4.575720 0.027681 -2.219967
v 4.546660 0.015642 -2.190908
v 4.707844 0.067621 -2.352091
v 4.716192 0.073150 -2.360439
v 4.725130 0.072145 -2.369378
v 4.615448 0.044065 -2.259696
v 4.643554 0.056990 -2.287801
v 4.671659 0.060482 -2.315906
v 4.764666 0.089129 -2.408912
v 4.794993 0.102175 -2.439241
v 4.825322 0.108022 -2.469570
v 4.877352 0.127603 -2.521599
v 4.899776 0.127603 -2.544023
v 4.905364 0.125568 -2.549612
v 4.911119 0.111698 -2.555367
v 4.917348 0.069410 -2.561596
v 4.919436 0.046360 -2.563684
v 4.920350 0.023256 -2.564598
v 4.914657 0.090628 -2.558904
v 4.529722 0.004687 -2.173969
v 4.535285 0.004687 -2.179533
v -4.699764 0.054745 2.344011
v -4.587343 0.024721 2.231591
v -4.524158 0.002780 2.168406
v -4.540849 0.006520 2.185096
v -4.734337 0.067775 2.378584
v -4.855651 0.109791 2.499898
v -4.920753 0.000000 2.565001
v -4.524158 0.001325 2.168406
v -4.540849 0.002780 2.185096
v -4.552472 0.021519 2.196719
v -4.564095 0.027333 2.208343
v -4.575720 0.027681 2.219967
v -4.546660 0.015642 2.190908
v -4.707844 0.067621 2.352091
v -4.716192 0.073150 2.360439
v -4.725130 0.072145 2.369378
v -4.615448 0.044065 2.259696
v -4.643554 0.056990 2.287801
v -4.671659 0.060482 2.315906
v -4.764666 0.089129 2.408912
v -4.794993 0.102175 2.439241
v -4.825322 0.108022 2.469570
v -4.877352 0.127603 2.521600
v -4.899776 0.127603 2.544023
v -4.905364 0.125568 2.549611
v -4.911119 0.111698 2.555367
v -4.917348 0.069410 2.561596
v -4.919436 0.046360 2.563684
v -4.920350 0.023256 2.564598
v -4.914657 0.090628 2.558904
v -4.529722 0.004687 2.173969
v -4.535285 0.004687 2.179533
v 4.699764 0.054745 2.344011
v 4.587343 0.024721 2.231591
v 4.524158 0.002780 2.168406
v 4.540849 0.006520 2.185096
v 4.734337 0.067775 2.378584
v 4.855651 0.109791 2.499898
v 4.920753 0.000000 2.565001
v 4.524158 0.001325 2.168406
v 4.540849 0.002780 2.185096
v 4.552472 0.021519 2.196719
v 4.564095 0.027333 2.208343
v 4.575720 0.027681 2.219967
v 4.546660 0.015642 2.190908
v 4.707844 0.067621 2.352091
v 4.716192 0.073150 2.360439
v 4.725130 0.072145 2.369378
v 4.615448 0.044065 2.259696
v 4.643554 0.056990 2.287801
v 4.671659 0.060482 2.315906
v 4.764666 0.089129 2.408912
v 4.794993 0.102175 2.439241
v 4.825322 0.108022 2.469570
v 4.877352 0.127603 2.521600
v 4.899776 0.127603 2.544023
v 4.905364 0.125568 2.549611
v 4.911119 0.111698 2.555367
v 4.917348 0.069410 2.561596
v 4.919436 0.046360 2.563684
v 4.920350 0.023256 2.564598
v 4.914657 0.090628 2.558904
v 4.529722 0.004687 2.173969
v 4.535285 0.004687 2.179533
v -4.524158 0.002417 -2.168406
v 4.524158 0.002417 -2.168406
v -4.524158 0.002417 2.168406
v 4.524158 0.002417 2.168406
vt 0.0070 0.9859
vt 0.9964 0.9920
vt 0.9946 0.0123
vt 0.0051 0.0118
vt 0.9540 0.9188
vt 0.0491 0.9122
vt 0.0443 0.0911
vt 0.9522 0.0937
vt 0.9540 0.9188
vt 0.0491 0.9122
vt 0.0443 0.0911
vt 0.9522 0.0937
vt 0.0073 0.9853
vt 0.9960 0.9914
vt 0.9963 0.9918
vt 0.0071 0.9857
vt 0.0296 0.9463
vt 0.9736 0.9527
vt 0.9745 0.9543
vt 0.0287 0.9479
vt 0.0277 0.9495
vt 0.9755 0.9559
vt 0.9765 0.9576
vt 0.0268 0.9513
vt 0.9964 0.9920
vt 0.0070 0.9858
vt 0.0334 0.9396
vt 0.9698 0.9460
vt 0.9728 0.9512
vt 0.0304 0.9448
vt 0.0080 0.9841
vt 0.9954 0.9903
vt 0.9957 0.9909
vt 0.0076 0.9848
vt 0.0424 0.9239
vt 0.9608 0.9305
vt 0.9638 0.9356
vt 0.0394 0.9292
vt 0.0436 0.9218
vt 0.9595 0.9283
vt 0.0491 0.9122
vt 0.9540 0.9188
vt 0.9546 0.9198
vt 0.0485 0.9132
vt 0.9668 0.9408
vt 0.0364 0.9344
vt 0.0479 0.9143
vt 0.9552 0.9208
vt 0.9558 0.9219
vt 0.0473 0.9153
vt 0.0171 0.9682
vt 0.9862 0.9744
vt 0.9894 0.9800
vt 0.0139 0.9738
vt 0.9797 0.9632
vt 0.0235 0.9569
vt 0.9830 0.9688
vt 0.0203 0.9625
vt 0.9558 0.9219
vt 0.0473 0.9153
vt 0.9918 0.9840
vt 0.0116 0.9778
vt 0.0467 0.9164
vt 0.9564 0.9229
vt 0.9570 0.9240
vt 0.0461 0.9175
vt 0.9942 0.9882
vt 0.0092 0.9820
vt 0.9583 0.9262
vt 0.0449 0.9196
vt 0.9948 0.9892
vt 0.0086 0.9830
vt 0.0054 0.0125
vt 0.0052 0.0121
vt 0.9944 0.0126
vt 0.9942 0.0130
vt 0.0261 0.0544
vt 0.0253 0.0527
vt 0.9727 0.0543
vt 0.9718 0.0560
vt 0.0244 0.0509
vt 0.0235 0.0491
vt 0.9747 0.0506
vt 0.9737 0.0525
vt 0.0051 0.0119
vt 0.9945 0.0124
vt 0.0297 0.0616
vt 0.0269 0.0560
vt 0.9710 0.0577
vt 0.9680 0.0634
vt 0.0060 0.0138
vt 0.0057 0.0131
vt 0.9939 0.0136
vt 0.9936 0.0143
vt 0.0380 0.0785
vt 0.0352 0.0729
vt 0.9619 0.0750
vt 0.9589 0.0807
vt 0.0392 0.0808
vt 0.9577 0.0831
vt 0.0443 0.0911
vt 0.0437 0.0900
vt 0.9528 0.0925
vt 0.9522 0.0937
vt 0.0325 0.0672
vt 0.9649 0.0692
vt 0.0432 0.0889
vt 0.0426 0.0878
vt 0.9540 0.0903
vt 0.9534 0.0914
vt 0.0145 0.0309
vt 0.0115 0.0249
vt 0.9876 0.0257
vt 0.9844 0.0319
vt 0.0205 0.0430
vt 0.9779 0.0443
vt 0.0175 0.0370
vt 0.9811 0.0381
vt 0.0426 0.0878
vt 0.9540 0.0903
vt 0.0093 0.0205
vt 0.9899 0.0212
vt 0.0420 0.0866
vt 0.0415 0.0855
vt 0.9552 0.0879
vt 0.9546 0.0891
vt 0.0071 0.0160
vt 0.9923 0.0166
vt 0.0403 0.0831
vt 0.9565 0.0855
vt 0.0066 0.0149
vt 0.9929 0.0155
vn 0.0000 -1.0000 0.0000
vn 0.0000 1.0000 0.0000
vn -0.6991 0.1502 -0.6991
vn 0.6991 0.1502 -0.6991
vn 0.7042 0.0901 -0.7042
vn -0.7042 0.0901 -0.7042
vn 0.3735 0.8491 0.3735
vn -0.3735 0.8491 0.3735
vn -0.0359 0.9987 0.0359
vn 0.0359 0.9987 0.0359
vn -0.1815 0.9665 -0.1815
vn 0.1815 0.9665 -0.1815
vn -0.1752 0.9688 0.1752
vn 0.1752 0.9688 0.1752
vn 0.7065 0.0399 -0.7065
vn -0.7065 0.0399 -0.7065
vn -0.0601 0.9964 -0.0601
vn 0.0601 0.9964 -0.0601
vn -0.3630 0.8582 0.3629
vn 0.3630 0.8582 0.3630
vn -0.6620 0.3512 -0.6620
vn 0.6620 0.3512 -0.6620
vn 0.6926 0.2014 -0.6926
vn -0.6926 0.2014 -0.6926
vn 0.1972 0.9603 0.1972
vn -0.1972 0.9603 0.1972
vn -0.2434 0.9388 0.2434
vn 0.2434 0.9388 0.2434
vn -0.0900 0.9919 -0.0900
vn 0.0900 0.9919 -0.0900
vn 0.4230 0.8013 0.4230
vn -0.4230 0.8013 0.4230
vn -0.0421 0.9982 0.0421
vn 0.0421 0.9982 0.0421
vn -0.1021 0.9895 0.1021
vn 0.1021 0.9895 0.1021
vn -0.1244 0.9844 -0.1244
vn 0.1244 0.9844 -0.1244
vn -0.5435 0.6397 0.5435
vn 0.5435 0.6397 0.5435
vn 0.0458 0.9979 0.0458
vn -0.0458 0.9979 0.0458
vn -0.2691 0.9247 0.2691
vn 0.2691 0.9247 0.2691
vn -0.2356 0.9428 0.2356
vn 0.2356 0.9428 0.2356
vn 0.5818 -0.5682 -0.5818
vn -0.5818 -0.5682 -0.5818
vn -0.1239 0.9845 0.1239
vn 0.1239 0.9845 0.1239
vn 0.5773 0.5773 0.5773
vn -0.5773 0.5773 0.5773
vn -0.6391 0.4280 0.6390
vn 0.6391 0.4280 0.6390
vn -0.0937 0.9911 0.0937
vn 0.0937 0.9911 0.0937
vn 0.4494 0.7721 0.4494
vn -0.4494 0.7721 0.4494
vn -0.2863 0.9144 0.2863
vn 0.2863 0.9144 0.2863
vn 0.1316 0.9825 -0.1316
vn -0.1316 0.9825 -0.1316
vn -0.0715 0.9948 0.0715
vn 0.0715 0.9948 0.0715
vn 0.4920 0.7182 -0.4920
vn -0.4920 0.7182 -0.4920
vn -0.6991 0.1502 0.6991
vn -0.7042 0.0901 0.7042
vn 0.7042 0.0901 0.7042
vn 0.6991 0.1502 0.6991
vn 0.3735 0.8491 -0.3735
vn 0.0359 0.9987 -0.0359
vn -0.0359 0.9987 -0.0359
vn -0.3735 0.8491 -0.3735
vn -0.1815 0.9665 0.1815
vn 0.1752 0.9688 -0.1752
vn -0.1752 0.9688 -0.1752
vn 0.1815 0.9665 0.1815
vn -0.7065 0.0399 0.7065
vn 0.7065 0.0399 0.7065
vn -0.0601 0.9964 0.0601
vn 0.3630 0.8582 -0.3629
vn -0.3630 0.8582 -0.3629
vn 0.0601 0.9964 0.0601
vn -0.6620 0.3512 0.6620
vn -0.6926 0.2014 0.6926
vn 0.6926 0.2014 0.6926
vn 0.6620 0.3512 0.6620
vn 0.1972 0.9603 -0.1972
vn 0.2434 0.9388 -0.2434
vn -0.2434 0.9388 -0.2434
vn -0.1972 0.9603 -0.1972
vn -0.0900 0.9919 0.0900
vn 0.0900 0.9919 0.0900
vn 0.4230 0.8013 -0.4230
vn 0.0421 0.9982 -0.0421
vn -0.0421 0.9982 -0.0421
vn -0.4230 0.8013 -0.4230
vn 0.1021 0.9895 -0.1021
vn -0.1021 0.9895 -0.1021
vn -0.1244 0.9844 0.1244
vn 0.5435 0.6397 -0.5435
vn -0.5435 0.6397 -0.5435
vn 0.1244 0.9844 0.1244
vn 0.0458 0.9979 -0.0458
vn 0.2691 0.9247 -0.2691
vn -0.2691 0.9247 -0.2691
vn -0.0458 0.9979 -0.0458
vn 0.2356 0.9428 -0.2356
vn -0.2356 0.9428 -0.2356
vn -0.5818 -0.5682 0.5818
vn 0.5818 -0.5682 0.5818
vn 0.1239 0.9845 -0.1239
vn -0.1239 0.9845 -0.1239
vn 0.5773 0.5773 -0.5773
vn -0.5773 0.5773 -0.5773
vn 0.6391 0.4280 -0.6390
vn -0.6391 0.4280 -0.6390
vn 0.0937 0.9911 -0.0937
vn -0.0937 0.9911 -0.0937
vn 0.4494 0.7721 -0.4494
vn 0.2863 0.9144 -0.2863
vn -0.2863 0.9144 -0.2863
vn -0.4494 0.7721 -0.4494
vn -0.1316 0.9825 0.1316
vn 0.1316 0.9825 0.1316
vn 0.0715 0.9948 -0.0715
vn -0.0715 0.9948 -0.0715
vn -0.4920 0.7182 0.4920
vn 0.4920 0.7182 0.4920
usemtl Picture
s off
f 7/1/1 39/2/1 103/3/1 71/4/1
f 40/5/2 8/6/2 72/7/2 104/8/2
usemtl Overlay
f 130/9/2 129/10/2 131/11/2 132/12/2
usemtl Frame
s 1
f 27/13/3 59/14/4 60/15/5 28/16/6
f 14/17/7 46/18/8 47/19/9 15/20/10
f 16/21/11 48/22/12 37/23/13 5/24/14
f 28/16/6 60/15/5 61/25/15 29/26/16
f 15/20/10 47/19/9 48/22/12 16/21/11
f 19/27/17 51/28/18 33/29/19 1/30/20
f 26/31/21 58/32/22 62/33/23 30/34/24
f 2/35/25 34/36/26 49/37/27 17/38/28
f 12/39/29 44/40/30 34/36/26 2/35/25
f 3/41/31 35/42/32 63/43/33 31/44/34
f 17/38/28 49/37/27 50/45/35 18/46/36
f 32/47/37 64/48/38 41/49/39 9/50/40
f 31/44/34 63/43/33 64/48/38 32/47/37
f 18/46/36 50/45/35 51/28/18 19/27/17
f 22/51/41 54/52/42 38/53/43 6/54/44
f 5/24/14 37/23/13 52/55/45 20/56/46
f 29/26/16 61/25/15 39/2/47 7/1/48
f 20/56/46 52/55/45 53/57/49 21/58/50
f 8/6/51 40/5/52 35/42/32 3/41/31
f 21/58/50 53/57/49 54/52/42 22/51/41
f 9/50/40 41/49/39 36/59/53 4/60/54
f 6/54/44 38/53/43 55/61/55 23/62/56
f 13/63/57 45/64/58 42/65/59 10/66/60
f 23/62/56 55/61/55 56/67/61 24/68/62
f 10/66/60 42/65/59 43/69/63 11/70/64
f 24/68/62 56/67/61 57/71/65 25/72/66
f 11/70/64 43/69/63 44/40/30 12/39/29
f 25/72/66 57/71/65 58/32/22 26/31/21
f 4/60/54 36/59/53 45/64/58 13/63/57
f 30/34/24 62/33/23 59/14/4 27/13/3
f 1/30/20 33/29/19 46/18/8 14/17/7
f 91/73/67 92/74/68 124/75/69 123/76/70
f 78/77/71 79/78/72 111/79/73 110/80/74
f 80/81/75 69/82/76 101/83/77 112/84/78
f 92/74/68 93/85/79 125/86/80 124/75/69
f 79/78/72 80/81/75 112/84/78 111/79/73
f 83/87/81 65/88/82 97/89/83 115/90/84
f 90/91/85 94/92/86 126/93/87 122/94/88
f 66/95/89 81/96/90 113/97/91 98/98/92
f 76/99/93 66/95/89 98/98/92 108/100/94
f 67/101/95 95/102/96 127/103/97 99/104/98
f 81/96/90 82/105/99 114/106/100 113/97/91
f 96/107/101 73/108/102 105/109/103 128/110/104
f 95/102/96 96/107/101 128/110/104 127/103/97
f 82/105/99 83/87/81 115/90/84 114/106/100
f 86/111/105 70/112/106 102/113/107 118/114/108
f 69/82/76 84/115/109 116/116/110 101/83/77
f 93/85/79 71/4/111 103/3/112 125/86/80
f 84/115/109 85/117/113 117/118/114 116/116/110
f 72/7/115 67/101/95 99/104/98 104/8/116
f 85/117/113 86/111/105 118/114/108 117/118/114
f 73/108/102 68/119/117 100/120/118 105/109/103
f 70/112/106 87/121/119 119/122/120 102/113/107
f 77/123/121 74/124/122 106/125/123 109/126/124
f 87/121/119 88/127/125 120/128/126 119/122/120
f 74/124/122 75/129/127 107/130/128 106/125/123
f 88/127/125 89/131/129 121/132/130 120/128/126
f 75/129/127 76/99/93 108/100/94 107/130/128
f 89/131/129 90/91/85 122/94/88 121/132/130
f 68/119/117 77/123/121 109/126/124 100/120/118
f 94/92/86 91/73/67 123/76/70 126/93/87
f 65/88/82 78/77/71 110/80/74 97/89/83
f 36/59/53 41/49/39 105/109/103 100/120/118
f 1/30/20 14/17/7 78/77/71 65/88/82
f 42/65/59 45/64/58 109/126/124 106/125/123
f 14/17/7 15/20/10 79/78/72 78/77/71
f 43/69/63 42/65/59 106/125/123 107/130/128
f 15/20/10 16/21/11 80/81/75 79/78/72
f 44/40/30 43/69/63 107/130/128 108/100/94
f 2/35/25 17/38/28 81/96/90 66/95/89
f 45/64/58 36/59/53 100/120/118 109/126/124
f 17/38/28 18/46/36 82/105/99 81/96/90
f 46/18/8 33/29/19 97/89/83 110/80/74
f 18/46/36 19/27/17 83/87/81 82/105/99
f 47/19/9 46/18/8 110/80/74 111/79/73
f 5/24/14 20/56/46 84/115/109 69/82/76
f 48/22/12 47/19/9 111/79/73 112/84/78
f 20/56/46 21/58/50 85/117/113 84/115/109
f 49/37/27 34/36/26 98/98/92 113/97/91
f 21/58/50 22/51/41 86/111/105 85/117/113
f 50/45/35 49/37/27 113/97/91 114/106/100
f 6/54/44 23/62/56 87/121/119 70/112/106
f 51/28/18 50/45/35 114/106/100 115/90/84
f 23/62/56 24/68/62 88/127/125 87/121/119
f 52/55/45 37/23/13 101/83/77 116/116/110
f 24/68/62 25/72/66 89/131/129 88/127/125
f 53/57/49 52/55/45 116/116/110 117/118/114
f 25/72/66 26/31/21 90/91/85 89/131/129
f 54/52/42 53/57/49 117/118/114 118/114/108
f 30/34/24 27/13/3 91/73/67 94/92/86
f 55/61/55 38/53/43 102/113/107 119/122/120
f 27/13/3 28/16/6 92/74/68 91/73/67
f 16/21/11 5/24/14 69/82/76 80/81/75
f 56/67/61 55/61/55 119/122/120 120/128/126
f 28/16/6 29/26/16 93/85/79 92/74/68
f 19/27/17 1/30/20 65/88/82 83/87/81
f 57/71/65 56/67/61 120/128/126 121/132/130
f 26/31/21 30/34/24 94/92/86 90/91/85
f 12/39/29 2/35/25 66/95/89 76/99/93
f 58/32/22 57/71/65 121/132/130 122/94/88
f 3/41/31 31/44/34 95/102/96 67/101/95
f 32/47/37 9/50/40 73/108/102 96/107/101
f 59/14/4 62/33/23 126/93/87 123/76/70
f 31/44/34 32/47/37 96/107/101 95/102/96
f 22/51/41 6/54/44 70/112/106 86/111/105
f 60/15/5 59/14/4 123/76/70 124/75/69
f 37/23/13 48/22/12 112/84/78 101/83/77
f 29/26/16 7/1/48 71/4/111 93/85/79
f 61/25/15 60/15/5 124/75/69 125/86/80
f 33/29/19 51/28/18 115/90/84 97/89/83
f 8/6/51 3/41/31 67/101/95 72/7/115
f 62/33/23 58/32/22 122/94/88 126/93/87
f 34/36/26 44/40/30 108/100/94 98/98/92
f 9/50/40 4/60/54 68/119/117 73/108/102
f 63/43/33 35/42/32 99/104/98 127/103/97
f 41/49/39 64/48/38 128/110/104 105/109/103
f 13/63/57 10/66/60 74/124/122 77/123/121
f 64/48/38 63/43/33 127/103/97 128/110/104
f 38/53/43 54/52/42 118/114/108 102/113/107
f 10/66/60 11/70/64 75/129/127 74/124/122
f 39/2/47 61/25/15 125/86/80 103/3/112
f 11/70/64 12/39/29 76/99/93 75/129/127
f 35/42/32 40/5/52 104/8/116 99/104/98
f 4/60/54 13/63/57 77/123/121 68/119/117
