# Blender v2.78 (sub 0) OBJ File: 'frame.blend'
# www.blender.org
mtllib frame.mtl
o Plane
v -1.100879 0.000000 1.000000
v -1.100879 0.000000 -1.000000
v -1.000000 0.000000 1.100879
v 1.105265 0.000000 1.000000
v 1.105265 0.000000 -1.000000
v -1.100943 0.000000 -1.000000
v -1.087599 0.000000 -1.077701
v -1.049788 0.000000 -1.092735
v -1.067622 0.000000 -1.089490
v -1.100522 0.000000 -1.019179
v 1.104879 0.000000 -1.000000
v 1.088032 0.000000 -1.083115
v 1.052935 0.000000 -1.095502
v 1.074695 0.000000 -1.093520
v 1.104383 0.000000 -1.023628
v 1.100915 0.000000 -1.047751
v 1.095464 0.000000 -1.068406
v -1.101080 0.000000 1.000000
v -1.087370 0.000000 1.080773
v -1.074744 0.000000 1.090074
v -1.025436 0.000000 1.091356
v -1.096951 0.000000 1.069465
v 1.105045 0.000000 1.000000
v 1.090827 0.000000 1.087687
v 1.096313 0.000000 1.071917
v 1.103478 0.000000 1.025811
v 1.054610 0.000000 1.098844
v 1.077023 0.000000 1.094694
vt 0.0069 0.0727
vt 0.0068 0.0727
vt 0.0086 0.0418
vt 0.0127 0.0368
vt 0.0181 0.0327
vt 0.0394 0.0321
vt 0.0504 0.0278
vt 0.9458 0.0259
vt 0.9555 0.0277
vt 0.9614 0.0309
vt 0.9638 0.0379
vt 0.9669 0.0584
vt 0.9676 0.0699
vt 0.9677 0.0699
vt 0.9677 0.9529
vt 0.9675 0.9529
vt 0.9673 0.9635
vt 0.9658 0.9742
vt 0.9634 0.9834
vt 0.9602 0.9899
vt 0.9545 0.9946
vt 0.9451 0.9955
vt 0.0386 0.9942
vt 0.0309 0.9928
vt 0.0223 0.9875
vt 0.0167 0.9615
vt 0.0165 0.9529
vt 0.0166 0.9529
vn 0.0000 1.0000 0.0000
usemtl picture
s off
f 1/1/1 18/2/1 22/3/1 19/4/1 20/5/1 21/6/1 3/7/1 27/8/1 28/9/1 24/10/1 25/11/1 26/12/1 23/13/1 4/14/1 5/15/1 11/16/1 15/17/1 16/18/1 17/19/1 12/20/1 14/21/1 13/22/1 8/23/1 9/24/1 7/25/1 10/26/1 6/27/1 2/28/1
