# Blender v2.78 (sub 0) OBJ File: 'frame.blend'
# www.blender.org
mtllib frame.mtl
o Cube_Cube.001
v -0.995332 0.003111 -0.657600
v -0.995332 0.003111 0.657600
v 0.995332 0.003111 -0.657600
v 0.995332 0.003111 0.657600
v -0.995332 0.000915 0.657600
v -0.995332 0.000915 -0.657600
v 0.995332 0.000915 -0.657600
v 0.995332 0.000915 0.657600
vt 0.0000 1.0000
vt 0.0000 0.0000
vt 1.0000 0.0000
vt 1.0000 1.0000
vt 0.0005 0.9996
vt 0.9995 0.9996
vt 0.9995 0.0006
vt 0.0005 0.0006
vn 0.0000 1.0000 0.0000
vn 0.0000 -1.0000 -0.0000
vn 0.0000 0.0000 1.0000
vn -1.0000 0.0000 0.0000
vn 1.0000 0.0000 0.0000
vn 0.0000 0.0000 -1.0000
usemtl Lief
s off
f 1/1/1 2/2/1 4/3/1 3/4/1
f 6/5/2 7/6/2 8/7/2 5/8/2
f 2/2/3 5/8/3 8/7/3 4/3/3
f 1/1/4 6/5/4 5/8/4 2/2/4
f 4/3/5 8/7/5 7/6/5 3/4/5
f 3/4/6 7/6/6 6/5/6 1/1/6
