# Blender v2.78 (sub 0) OBJ File: 'frame.blend'
# www.blender.org
mtllib frame.mtl
o Plane_Plane.001
v -3.660020 0.000000 -4.800985
v -4.359647 0.219483 -5.500612
v -4.832368 0.545950 -5.973333
v 3.660020 0.000000 -4.800985
v 3.660020 0.219483 -4.800985
v 4.359647 0.219483 -5.500612
v 4.832368 0.545950 -5.973333
v 4.832368 0.656447 -5.973333
v 5.059274 0.751876 -6.200239
v 5.059274 0.000000 -6.200239
v 3.660020 0.219483 4.800985
v 4.832368 0.545950 5.973333
v 4.832368 0.656447 5.973333
v 3.660020 0.000000 4.800985
v 4.359647 0.219483 5.500612
v 5.059274 0.751876 6.200239
v 5.059274 0.000000 6.200240
v -3.660020 0.000000 4.800985
v -3.660020 0.219483 4.800985
v -4.359647 0.219483 5.500612
v -4.832368 0.545950 5.973333
v -4.832368 0.656447 5.973333
v -5.059274 0.751876 6.200239
v -5.059274 0.000000 6.200240
v -3.660020 0.219483 -4.800985
v -4.832368 0.656447 -5.973333
v -5.059274 0.751876 -6.200239
v -5.059274 0.000000 -6.200239
vt 1.0000 1.0000
vt 0.0000 1.0000
vt 0.0000 0.0000
vt 1.0000 0.0000
vt 0.3150 0.7364
vt 3.3096 0.7364
vt 3.4720 0.9036
vt 0.1526 0.9036
vt 0.4542 4.3226
vt 0.4542 0.9036
vt 0.4921 0.9036
vt 0.4921 4.3226
vt -3.2447 0.9839
vt 0.0747 0.9839
vt 0.1526 1.0642
vt -3.3226 1.0642
vt 0.4542 0.9036
vt 0.4542 3.4931
vt 0.3788 3.4931
vt 0.3788 0.9036
vt 3.9885 3.8364
vt 3.9885 0.2569
vt 4.2467 0.2569
vt 4.2467 3.8364
vt 0.5553 0.4889
vt 3.0694 0.4889
vt 0.0747 -3.2423
vt 0.1526 -3.3226
vt 0.3034 0.9036
vt 0.3034 4.3004
vt 0.2280 4.3004
vt 0.2280 0.9036
vt 3.4720 1.0642
vt 3.4720 -3.3226
vt 3.7302 -3.3226
vt 3.7302 1.0642
vt 3.0694 -2.9079
vt 3.3096 -3.1554
vt 3.4720 -3.3226
vt 4.3226 -3.3226
vt 4.3226 0.9036
vt 4.2847 0.9036
vt 4.2847 -3.3226
vt 0.3150 -3.1554
vt 0.1526 -3.3226
vt 0.5301 0.9036
vt 0.5301 4.3226
vt 0.4921 4.3226
vt 0.4921 0.9036
vt -3.2447 -3.2423
vt -3.3226 -3.3226
vt 0.3788 0.9036
vt 0.3788 3.4931
vt 0.3034 3.4931
vt 0.3034 0.9036
vt 4.2467 -3.3226
vt 4.2467 0.2569
vt 3.9885 0.2569
vt 3.9885 -3.3226
vt 0.5553 -2.9079
vt 0.2280 0.9036
vt 0.2280 4.3004
vt 0.1526 4.3004
vt 0.1526 0.9036
vt 3.7302 1.0642
vt 3.7302 -3.3226
vt 3.9885 -3.3226
vt 3.9885 1.0642
vt 4.2847 -3.3226
vt 4.2847 0.9036
vt 4.2467 0.9036
vt 4.2467 -3.3226
vn 0.0000 1.0000 0.0000
vn 0.0000 0.8228 0.5683
vn 0.0000 0.0000 1.0000
vn 0.0000 0.9218 0.3877
vn 0.0000 0.0000 -1.0000
vn -0.3877 0.9218 0.0000
vn -1.0000 0.0000 0.0000
vn 1.0000 -0.0000 0.0000
vn -0.5683 0.8228 0.0000
vn 0.0000 0.8228 -0.5683
vn 0.0000 0.9218 -0.3877
vn 0.3877 0.9218 0.0000
vn 0.5683 0.8228 0.0000
usemtl Picture
s off
f 4/1/1 1/2/1 18/3/1 14/4/1
usemtl Frame
f 2/5/2 6/6/2 7/7/2 3/8/2
f 3/9/3 7/10/3 8/11/3 26/12/3
f 26/13/4 8/14/4 9/15/4 27/16/4
f 1/17/3 4/18/3 5/19/3 25/20/3
f 27/21/5 9/22/5 10/23/5 28/24/5
f 25/25/1 5/26/1 6/6/1 2/5/1
f 8/14/6 13/27/6 16/28/6 9/15/6
f 4/29/7 14/30/7 11/31/7 5/32/7
f 9/33/8 16/34/8 17/35/8 10/36/8
f 5/26/1 11/37/1 15/38/1 6/6/1
f 6/6/9 15/38/9 12/39/9 7/7/9
f 7/40/7 12/41/7 13/42/7 8/43/7
f 15/38/10 20/44/10 21/45/10 12/39/10
f 12/46/5 21/47/5 22/48/5 13/49/5
f 13/27/11 22/50/11 23/51/11 16/28/11
f 14/52/5 18/53/5 19/54/5 11/55/5
f 16/56/3 23/57/3 24/58/3 17/59/3
f 11/37/1 19/60/1 20/44/1 15/38/1
f 22/50/12 26/13/12 27/16/12 23/51/12
f 18/61/8 1/62/8 25/63/8 19/64/8
f 23/65/7 27/66/7 28/67/7 24/68/7
f 19/60/1 25/25/1 2/5/1 20/44/1
f 20/44/13 2/5/13 3/8/13 21/45/13
f 21/69/8 3/70/8 26/71/8 22/72/8
